<?xml version="1.0" encoding="utf-8"?>
<!-- Generator: Adobe Illustrator 25.0.0, SVG Export Plug-In . SVG Version: 6.00 Build 0)  -->
<svg version="1.1" id="Camada_1" xmlns="http://www.w3.org/2000/svg" xmlns:xlink="http://www.w3.org/1999/xlink" x="0px" y="0px"
	 width="100px" height="100px" viewBox="0 0 100 100" style="enable-background:new 0 0 100 100;" xml:space="preserve">
<path d="M26.1,45.2L26.1,45.2c-10.5,0-19-8.5-19-19v0c0-10.5,8.5-19,19-19h0c10.5,0,19,8.5,19,19v0C45.1,36.7,36.6,45.2,26.1,45.2z"
	/>
<path d="M74,45.2L74,45.2c-10.5,0-19-8.5-19-19v0c0-10.5,8.5-19,19-19h0c10.5,0,19,8.5,19,19v0C93,36.7,84.5,45.2,74,45.2z"/>
<path d="M74,91.9L74,91.9c-10.5,0-19-8.5-19-19v0c0-10.5,8.5-19,19-19h0c10.5,0,19,8.5,19,19v0C93,83.4,84.5,91.9,74,91.9z"/>
<path d="M26.1,91.9L26.1,91.9c-10.5,0-19-8.5-19-19v0c0-10.5,8.5-19,19-19h0c10.5,0,19,8.5,19,19v0C45.1,83.4,36.6,91.9,26.1,91.9z"
	/>
</svg>
